<?xml version="1.0" encoding="utf-8"?>
<svg version="1.1" xmlns:xlink="http://www.w3.org/1999/xlink" width="12px" height="12px" viewBox="610 2088  12 12" xmlns="http://www.w3.org/2000/svg">
  <path d="M 616 2088  C 619.36 2088  622 2090.64  622 2094  C 622 2097.36  619.36 2100  616 2100  C 612.64 2100  610 2097.36  610 2094  C 610 2090.64  612.64 2088  616 2088  Z " fill-rule="nonzero" fill="#f0f0f0" stroke="none" />
  <path d="M 616 2088.5  C 619.08 2088.5  621.5 2090.92  621.5 2094  C 621.5 2097.08  619.08 2099.5  616 2099.5  C 612.92 2099.5  610.5 2097.08  610.5 2094  C 610.5 2090.92  612.92 2088.5  616 2088.5  Z " stroke-width="1" stroke="#797979" fill="none" />
  <path d="M 616 2097  C 614.32 2097  613 2095.68  613 2094  C 613 2092.32  614.32 2091  616 2091  C 617.68 2091  619 2092.32  619 2094  C 619 2095.68  617.68 2097  616 2097  " fill-rule="nonzero" fill="#797979" stroke="none" />
</svg>