<?xml version="1.0" encoding="utf-8"?>
<svg version="1.1" xmlns:xlink="http://www.w3.org/1999/xlink" width="12px" height="12px" viewBox="680 2088  12 12" xmlns="http://www.w3.org/2000/svg">
  <path d="M 686 2088  C 689.36 2088  692 2090.64  692 2094  C 692 2097.36  689.36 2100  686 2100  C 682.64 2100  680 2097.36  680 2094  C 680 2090.64  682.64 2088  686 2088  Z " fill-rule="nonzero" fill="#f0f0f0" stroke="none" />
  <path d="M 686 2088.5  C 689.08 2088.5  691.5 2090.92  691.5 2094  C 691.5 2097.08  689.08 2099.5  686 2099.5  C 682.92 2099.5  680.5 2097.08  680.5 2094  C 680.5 2090.92  682.92 2088.5  686 2088.5  Z " stroke-width="1" stroke="#797979" fill="none" />
  <path d="M 686 2097  C 684.32 2097  683 2095.68  683 2094  C 683 2092.32  684.32 2091  686 2091  C 687.68 2091  689 2092.32  689 2094  C 689 2095.68  687.68 2097  686 2097  " fill-rule="nonzero" fill="#797979" stroke="none" />
</svg>