<?xml version="1.0" encoding="utf-8"?>
<svg version="1.1" xmlns:xlink="http://www.w3.org/1999/xlink" width="12px" height="12px" xmlns="http://www.w3.org/2000/svg">
  <g transform="matrix(1 0 0 1 -584 -627 )">
    <path d="M 590 628  C 592.8 628  595 630.2  595 633  C 595 635.8  592.8 638  590 638  C 587.2 638  585 635.8  585 633  C 585 630.2  587.2 628  590 628  Z " fill-rule="nonzero" fill="#ffffff" stroke="none" />
    <path d="M 590 628  C 592.8 628  595 630.2  595 633  C 595 635.8  592.8 638  590 638  C 587.2 638  585 635.8  585 633  C 585 630.2  587.2 628  590 628  Z " stroke-width="2" stroke="#34c9fb" fill="none" />
  </g>
</svg>