<?xml version="1.0" encoding="utf-8"?>
<svg version="1.1" xmlns:xlink="http://www.w3.org/1999/xlink" width="450px" height="20px" xmlns="http://www.w3.org/2000/svg">
  <g transform="matrix(1 0 0 1 0 -575 )">
    <path d="M 450 1.85458128078824  L 446.275862068965 1.85458128078824  L 441.931034482759 9  L 8.68965517241384 9  L 4.34482758620686 0.967881773398972  L 0 0.967881773398972  L 0 11.608275862069  L 6.82758620689651 19.5885714285714  L 47.1724137931035 19.5885714285714  L 57.7241379310345 12.4949753694581  L 146.48275862069 12.4949753694581  L 152.068965517241 16  L 299.172413793103 16  L 303.51724137931 12.4949753694581  L 398.48275862069 12.4949753694581  L 409.655172413793 19.5885714285714  L 443.172413793103 19.5885714285714  L 450 10.7215763546799  L 450 1.85458128078824  Z M 430.758620689655 16.0417733990148  L 428.275862068965 16.0417733990148  L 430.758620689655 12.4949753694581  L 433.241379310345 12.4949753694581  L 430.758620689655 16.0417733990148  Z M 435.724137931034 16.0417733990148  L 433.241379310345 16.0417733990148  L 435.724137931034 12.4949753694581  L 438.206896551724 12.4949753694581  L 435.724137931034 16.0417733990148  Z M 443.172413793103 12.4949753694581  L 440.689655172414 16.0417733990148  L 438.206896551724 16.0417733990148  L 440.689655172414 12.4949753694581  L 443.172413793103 12.4949753694581  Z M 11.7931034482759 16.0417733990148  L 9.31034482758616 16.0417733990148  L 6.82758620689651 12.4949753694581  L 9.31034482758616 12.4949753694581  L 11.7931034482759 16.0417733990148  Z M 16.7586206896552 16.0417733990148  L 14.2758620689655 16.0417733990148  L 11.7931034482759 12.4949753694581  L 14.2758620689655 12.4949753694581  L 16.7586206896552 16.0417733990148  Z M 21.7241379310345 16.0417733990148  L 19.2413793103448 16.0417733990148  L 16.7586206896552 12.4949753694581  L 19.2413793103448 12.4949753694581  L 21.7241379310345 16.0417733990148  Z " fill-rule="nonzero" fill="#3cdcd2" stroke="none" transform="matrix(1 0 0 1 0 575 )" />
  </g>
</svg>