<?xml version="1.0" encoding="utf-8"?>
<svg version="1.1" xmlns:xlink="http://www.w3.org/1999/xlink" width="171px" height="65px" xmlns="http://www.w3.org/2000/svg">
  <g transform="matrix(1 0 0 1 -246 -357 )">
    <path d="M 246 401.562388059702  C 246 401.562388059702  246 367  246 367  C 246 361.477152501692  250.477152501692 357  256 357  C 256 357  407 357  407 357  C 412.522847498308 357  417 361.477152501692  417 367  C 417 367  417 401.562388059702  417 401.562388059702  C 417 407.085235558009  412.522847498308 411.562388059702  407 411.562388059702  C 407 411.562388059702  395.941666666667 411.562388059702  395.941666666667 411.562388059702  C 395.941666666667 411.562388059702  386.133333333333 421.982354892206  386.133333333333 421.982354892206  C 386.133333333333 421.982354892206  375.941666666667 411.562388059702  375.941666666667 411.562388059702  C 375.941666666667 411.562388059702  256 411.562388059702  256 411.562388059702  C 250.477152501692 411.562388059702  246 407.085235558009  246 401.562388059702  Z " fill-rule="nonzero" fill="#000000" stroke="none" fill-opacity="0.8" />
  </g>
</svg>