<?xml version="1.0" encoding="utf-8"?>
<svg version="1.1" xmlns:xlink="http://www.w3.org/1999/xlink" width="276px" height="56px" xmlns="http://www.w3.org/2000/svg">
  <defs>
    <filter x="32px" y="357px" width="276px" height="56px" filterUnits="userSpaceOnUse" id="filter61">
      <feOffset dx="0" dy="0" in="SourceAlpha" result="shadowOffsetInner" />
      <feGaussianBlur stdDeviation="1.5" in="shadowOffsetInner" result="shadowGaussian" />
      <feComposite in2="shadowGaussian" operator="atop" in="SourceAlpha" result="shadowComposite" />
      <feColorMatrix type="matrix" values="0 0 0 0 0.235294117647059  0 0 0 0 0.862745098039216  0 0 0 0 0.823529411764706  0 0 0 1 0  " in="shadowComposite" />
    </filter>
    <g id="widget62">
      <path d="M 35.5 363  A 2.5 2.5 0 0 1 38 360.5 L 302 360.5  A 2.5 2.5 0 0 1 304.5 363 L 304.5 407  A 2.5 2.5 0 0 1 302 409.5 L 38 409.5  A 2.5 2.5 0 0 1 35.5 407 L 35.5 363  Z " fill-rule="nonzero" fill="#ffffff" stroke="none" fill-opacity="0" />
      <path d="M 35.5 363  A 2.5 2.5 0 0 1 38 360.5 L 302 360.5  A 2.5 2.5 0 0 1 304.5 363 L 304.5 407  A 2.5 2.5 0 0 1 302 409.5 L 38 409.5  A 2.5 2.5 0 0 1 35.5 407 L 35.5 363  Z " stroke-width="1" stroke="#3cdcd2" fill="none" />
    </g>
  </defs>
  <g transform="matrix(1 0 0 1 -32 -357 )">
    <use xlink:href="#widget62" filter="url(#filter61)" />
    <use xlink:href="#widget62" />
  </g>
</svg>