<?xml version="1.0" encoding="utf-8"?>
<svg version="1.1" xmlns:xlink="http://www.w3.org/1999/xlink" width="380px" height="50px" xmlns="http://www.w3.org/2000/svg">
  <g transform="matrix(1 0 0 1 -35 -220 )">
    <path d="M 35.5 223  A 2.5 2.5 0 0 1 38 220.5 L 412 220.5  A 2.5 2.5 0 0 1 414.5 223 L 414.5 267  A 2.5 2.5 0 0 1 412 269.5 L 38 269.5  A 2.5 2.5 0 0 1 35.5 267 L 35.5 223  Z " fill-rule="nonzero" fill="#ffffff" stroke="none" fill-opacity="0" />
    <path d="M 35.5 223  A 2.5 2.5 0 0 1 38 220.5 L 412 220.5  A 2.5 2.5 0 0 1 414.5 223 L 414.5 267  A 2.5 2.5 0 0 1 412 269.5 L 38 269.5  A 2.5 2.5 0 0 1 35.5 267 L 35.5 223  Z " stroke-width="1" stroke="#3cdcd2" fill="none" />
  </g>
</svg>