<?xml version="1.0" encoding="utf-8"?>
<svg version="1.1" xmlns:xlink="http://www.w3.org/1999/xlink" width="386px" height="56px" xmlns="http://www.w3.org/2000/svg">
  <defs>
    <filter x="32px" y="217px" width="386px" height="56px" filterUnits="userSpaceOnUse" id="filter84">
      <feOffset dx="0" dy="0" in="SourceAlpha" result="shadowOffsetInner" />
      <feGaussianBlur stdDeviation="1.5" in="shadowOffsetInner" result="shadowGaussian" />
      <feComposite in2="shadowGaussian" operator="atop" in="SourceAlpha" result="shadowComposite" />
      <feColorMatrix type="matrix" values="0 0 0 0 0.235294117647059  0 0 0 0 0.862745098039216  0 0 0 0 0.823529411764706  0 0 0 1 0  " in="shadowComposite" />
    </filter>
    <g id="widget85">
      <path d="M 35.5 223  A 2.5 2.5 0 0 1 38 220.5 L 412 220.5  A 2.5 2.5 0 0 1 414.5 223 L 414.5 267  A 2.5 2.5 0 0 1 412 269.5 L 38 269.5  A 2.5 2.5 0 0 1 35.5 267 L 35.5 223  Z " fill-rule="nonzero" fill="#ffffff" stroke="none" fill-opacity="0" />
      <path d="M 35.5 223  A 2.5 2.5 0 0 1 38 220.5 L 412 220.5  A 2.5 2.5 0 0 1 414.5 223 L 414.5 267  A 2.5 2.5 0 0 1 412 269.5 L 38 269.5  A 2.5 2.5 0 0 1 35.5 267 L 35.5 223  Z " stroke-width="1" stroke="#3cdcd2" fill="none" />
    </g>
  </defs>
  <g transform="matrix(1 0 0 1 -32 -217 )">
    <use xlink:href="#widget85" filter="url(#filter84)" />
    <use xlink:href="#widget85" />
  </g>
</svg>