<?xml version="1.0" encoding="utf-8"?>
<svg version="1.1" xmlns:xlink="http://www.w3.org/1999/xlink" width="21px" height="21px" viewBox="816 376  21 21" xmlns="http://www.w3.org/2000/svg">
  <path d="M 826.5 376  C 832.38 376  837 380.62  837 386.5  C 837 392.38  832.38 397  826.5 397  C 820.62 397  816 392.38  816 386.5  C 816 380.62  820.62 376  826.5 376  Z " fill-rule="nonzero" fill="#f0f0f0" stroke="none" />
  <path d="M 826.5 376.5  C 832.1 376.5  836.5 380.9  836.5 386.5  C 836.5 392.1  832.1 396.5  826.5 396.5  C 820.9 396.5  816.5 392.1  816.5 386.5  C 816.5 380.9  820.9 376.5  826.5 376.5  Z " stroke-width="1" stroke="#409eff" fill="none" />
  <path d="M 826.5 391.75  C 823.56 391.75  821.25 389.44  821.25 386.5  C 821.25 383.56  823.56 381.25  826.5 381.25  C 829.44 381.25  831.75 383.56  831.75 386.5  C 831.75 389.44  829.44 391.75  826.5 391.75  " fill-rule="nonzero" fill="#409eff" stroke="none" />
</svg>