<?xml version="1.0" encoding="utf-8"?>
<svg version="1.1" xmlns:xlink="http://www.w3.org/1999/xlink" width="21px" height="21px" viewBox="664 376  21 21" xmlns="http://www.w3.org/2000/svg">
  <path d="M 674.5 376  C 680.38 376  685 380.62  685 386.5  C 685 392.38  680.38 397  674.5 397  C 668.62 397  664 392.38  664 386.5  C 664 380.62  668.62 376  674.5 376  Z " fill-rule="nonzero" fill="#f0f0f0" stroke="none" />
  <path d="M 674.5 376.5  C 680.1 376.5  684.5 380.9  684.5 386.5  C 684.5 392.1  680.1 396.5  674.5 396.5  C 668.9 396.5  664.5 392.1  664.5 386.5  C 664.5 380.9  668.9 376.5  674.5 376.5  Z " stroke-width="1" stroke="#409eff" fill="none" />
  <path d="M 674.5 391.75  C 671.56 391.75  669.25 389.44  669.25 386.5  C 669.25 383.56  671.56 381.25  674.5 381.25  C 677.44 381.25  679.75 383.56  679.75 386.5  C 679.75 389.44  677.44 391.75  674.5 391.75  " fill-rule="nonzero" fill="#409eff" stroke="none" />
</svg>