<?xml version="1.0" encoding="utf-8"?>
<svg version="1.1" xmlns:xlink="http://www.w3.org/1999/xlink" width="30px" height="30px" xmlns="http://www.w3.org/2000/svg">
  <g transform="matrix(1 0 0 1 -1365 -328 )">
    <path d="M 1380 329  C 1387.84 329  1394 335.16  1394 343  C 1394 350.84  1387.84 357  1380 357  C 1372.16 357  1366 350.84  1366 343  C 1366 335.16  1372.16 329  1380 329  Z " fill-rule="nonzero" fill="#ffffff" stroke="none" />
    <path d="M 1380 329  C 1387.84 329  1394 335.16  1394 343  C 1394 350.84  1387.84 357  1380 357  C 1372.16 357  1366 350.84  1366 343  C 1366 335.16  1372.16 329  1380 329  Z " stroke-width="2" stroke="#e4e4e4" fill="none" />
  </g>
</svg>