<?xml version="1.0" encoding="utf-8"?>
<svg version="1.1" xmlns:xlink="http://www.w3.org/1999/xlink" width="21px" height="21px" viewBox="664 762.5  21 21" xmlns="http://www.w3.org/2000/svg">
  <path d="M 674.5 762.5  C 680.38 762.5  685 767.12  685 773  C 685 778.88  680.38 783.5  674.5 783.5  C 668.62 783.5  664 778.88  664 773  C 664 767.12  668.62 762.5  674.5 762.5  Z " fill-rule="nonzero" fill="#f0f0f0" stroke="none" />
  <path d="M 674.5 763  C 680.1 763  684.5 767.4  684.5 773  C 684.5 778.6  680.1 783  674.5 783  C 668.9 783  664.5 778.6  664.5 773  C 664.5 767.4  668.9 763  674.5 763  Z " stroke-width="1" stroke="#409eff" fill="none" />
  <path d="M 674.5 778.25  C 671.56 778.25  669.25 775.94  669.25 773  C 669.25 770.06  671.56 767.75  674.5 767.75  C 677.44 767.75  679.75 770.06  679.75 773  C 679.75 775.94  677.44 778.25  674.5 778.25  " fill-rule="nonzero" fill="#409eff" stroke="none" />
</svg>