<?xml version="1.0" encoding="utf-8"?>
<svg version="1.1" xmlns:xlink="http://www.w3.org/1999/xlink" width="21px" height="21px" viewBox="816 762.5  21 21" xmlns="http://www.w3.org/2000/svg">
  <path d="M 826.5 762.5  C 832.38 762.5  837 767.12  837 773  C 837 778.88  832.38 783.5  826.5 783.5  C 820.62 783.5  816 778.88  816 773  C 816 767.12  820.62 762.5  826.5 762.5  Z " fill-rule="nonzero" fill="#ffffff" stroke="none" />
  <path d="M 826.5 763  C 832.1 763  836.5 767.4  836.5 773  C 836.5 778.6  832.1 783  826.5 783  C 820.9 783  816.5 778.6  816.5 773  C 816.5 767.4  820.9 763  826.5 763  Z " stroke-width="1" stroke="#409eff" fill="none" />
  <path d="M 826.5 778.25  C 823.56 778.25  821.25 775.94  821.25 773  C 821.25 770.06  823.56 767.75  826.5 767.75  C 829.44 767.75  831.75 770.06  831.75 773  C 831.75 775.94  829.44 778.25  826.5 778.25  " fill-rule="nonzero" fill="#409eff" stroke="none" />
</svg>