<?xml version="1.0" encoding="utf-8"?>
<svg version="1.1" xmlns:xlink="http://www.w3.org/1999/xlink" width="21px" height="21px" viewBox="826 644  21 21" xmlns="http://www.w3.org/2000/svg">
  <path d="M 836.5 644  C 842.38 644  847 648.62  847 654.5  C 847 660.38  842.38 665  836.5 665  C 830.62 665  826 660.38  826 654.5  C 826 648.62  830.62 644  836.5 644  Z " fill-rule="nonzero" fill="#f0f0f0" stroke="none" />
  <path d="M 836.5 644.5  C 842.1 644.5  846.5 648.9  846.5 654.5  C 846.5 660.1  842.1 664.5  836.5 664.5  C 830.9 664.5  826.5 660.1  826.5 654.5  C 826.5 648.9  830.9 644.5  836.5 644.5  Z " stroke-width="1" stroke="#409eff" fill="none" />
  <path d="M 836.5 659.75  C 833.56 659.75  831.25 657.44  831.25 654.5  C 831.25 651.56  833.56 649.25  836.5 649.25  C 839.44 649.25  841.75 651.56  841.75 654.5  C 841.75 657.44  839.44 659.75  836.5 659.75  " fill-rule="nonzero" fill="#409eff" stroke="none" />
</svg>