<?xml version="1.0" encoding="utf-8"?>
<svg version="1.1" xmlns:xlink="http://www.w3.org/1999/xlink" width="21px" height="21px" viewBox="674 644  21 21" xmlns="http://www.w3.org/2000/svg">
  <path d="M 684.5 644  C 690.38 644  695 648.62  695 654.5  C 695 660.38  690.38 665  684.5 665  C 678.62 665  674 660.38  674 654.5  C 674 648.62  678.62 644  684.5 644  Z " fill-rule="nonzero" fill="#ffffff" stroke="none" />
  <path d="M 684.5 644.5  C 690.1 644.5  694.5 648.9  694.5 654.5  C 694.5 660.1  690.1 664.5  684.5 664.5  C 678.9 664.5  674.5 660.1  674.5 654.5  C 674.5 648.9  678.9 644.5  684.5 644.5  Z " stroke-width="1" stroke="#409eff" fill="none" />
  <path d="M 684.5 659.75  C 681.56 659.75  679.25 657.44  679.25 654.5  C 679.25 651.56  681.56 649.25  684.5 649.25  C 687.44 649.25  689.75 651.56  689.75 654.5  C 689.75 657.44  687.44 659.75  684.5 659.75  " fill-rule="nonzero" fill="#409eff" stroke="none" />
</svg>