<?xml version="1.0" encoding="utf-8"?>
<svg version="1.1" xmlns:xlink="http://www.w3.org/1999/xlink" width="30px" height="30px" xmlns="http://www.w3.org/2000/svg">
  <g transform="matrix(1 0 0 1 -777 -328 )">
    <path d="M 792 329  C 799.84 329  806 335.16  806 343  C 806 350.84  799.84 357  792 357  C 784.16 357  778 350.84  778 343  C 778 335.16  784.16 329  792 329  Z " fill-rule="nonzero" fill="#409eff" stroke="none" />
    <path d="M 792 329  C 799.84 329  806 335.16  806 343  C 806 350.84  799.84 357  792 357  C 784.16 357  778 350.84  778 343  C 778 335.16  784.16 329  792 329  Z " stroke-width="2" stroke="#409eff" fill="none" />
  </g>
</svg>