<?xml version="1.0" encoding="utf-8"?>
<svg version="1.1" xmlns:xlink="http://www.w3.org/1999/xlink" width="30px" height="30px" xmlns="http://www.w3.org/2000/svg">
  <g transform="matrix(1 0 0 1 -188 -328 )">
    <path d="M 203 329  C 210.84 329  217 335.16  217 343  C 217 350.84  210.84 357  203 357  C 195.16 357  189 350.84  189 343  C 189 335.16  195.16 329  203 329  Z " fill-rule="nonzero" fill="#ffffff" stroke="none" />
    <path d="M 203 329  C 210.84 329  217 335.16  217 343  C 217 350.84  210.84 357  203 357  C 195.16 357  189 350.84  189 343  C 189 335.16  195.16 329  203 329  Z " stroke-width="2" stroke="#409eff" fill="none" />
  </g>
</svg>