<?xml version="1.0" encoding="utf-8"?>
<svg version="1.1" xmlns:xlink="http://www.w3.org/1999/xlink" width="15px" height="15px" xmlns="http://www.w3.org/2000/svg">
  <g transform="matrix(1 0 0 1 -1493 -355 )">
    <path d="M 1497 362.5  A 3.5 3.5 0 0 1 1500.5 359 A 3.5 3.5 0 0 1 1504 362.5 A 3.5 3.5 0 0 1 1500.5 366 A 3.5 3.5 0 0 1 1497 362.5 Z " fill-rule="nonzero" fill="#2391ff" stroke="none" />
    <path d="M 1495 362.5  A 5.5 5.5 0 0 1 1500.5 357 A 5.5 5.5 0 0 1 1506 362.5 A 5.5 5.5 0 0 1 1500.5 368 A 5.5 5.5 0 0 1 1495 362.5 Z " stroke-width="4" stroke="#2391ff" fill="none" stroke-opacity="0.498039215686275" />
  </g>
</svg>