<?xml version="1.0" encoding="utf-8"?>
<svg version="1.1" xmlns:xlink="http://www.w3.org/1999/xlink" width="268px" height="100px" xmlns="http://www.w3.org/2000/svg">
  <g transform="matrix(1 0 0 1 -88.5 -537.5 )">
    <path d="M 0.389765109428237 58.752557852697  C 4.1762987797109 63.7359987163716  7.098147042024 69.3632803370658  9.02490735544375 75.3832562636456  C 12.206677258268 85.3517907940717  11.6609584023713 96.8870211331964  19.8906277222399 97.8685535862171  C 28.1202970421084 98.8500860392377  30.5350075740568 72.0699664524421  41.2366306625064 72.0699664524421  C 51.9382537509559 72.0699664524421  66.4293791044782 98.450751587052  78.2911317886801 95.9450267447485  C 90.152884472882 93.4393019024451  104.629699017246 71.6874356776999  112.95668183939 67.1455005098956  C 121.283664661534 62.6035653420911  138.061657318525 70.618919482619  152.740731298991 57.79474823842  C 167.419805279457 44.970576994221  170.278150895307 44.9715654458353  175.696223242575 44.9715654458353  C 181.114295589843 44.9715654458353  185.380824826854 52.9206933282038  192.898769904591 58.752557852697  C 200.416714982329 64.5844223771901  216.499202314235 67.7286869623448  227.066303796598 51.6999555845174  C 237.633405278961 35.6712242066902  245.306861149551 2.60850615927112  252.069195503739 0.365709446377021  C 258.831529857927 -1.87708726651697  261.915986258476 8.16063887691149  265.616761506769 8.16063887691149  " stroke-width="1.99707571056667" stroke="#5b8ff9" fill="none" transform="matrix(1 0 0 1 89 538 )" />
  </g>
</svg>