<?xml version="1.0" encoding="utf-8"?>
<svg version="1.1" xmlns:xlink="http://www.w3.org/1999/xlink" width="120px" height="120px" xmlns="http://www.w3.org/2000/svg">
  <g transform="matrix(1 0 0 1 -160 -882 )">
    <path d="M 220 882  C 253.6 882  280 908.4  280 942  C 280 975.6  253.6 1002  220 1002  C 186.4 1002  160 975.6  160 942  C 160 908.4  186.4 882  220 882  Z " fill-rule="nonzero" fill="#ffffff" stroke="none" />
    <path d="M 220 882.5  C 253.32 882.5  279.5 908.68  279.5 942  C 279.5 975.32  253.32 1001.5  220 1001.5  C 186.68 1001.5  160.5 975.32  160.5 942  C 160.5 908.68  186.68 882.5  220 882.5  Z " stroke-width="1" stroke="#ffffff" fill="none" />
  </g>
</svg>