<?xml version="1.0" encoding="utf-8"?>
<svg version="1.1" xmlns:xlink="http://www.w3.org/1999/xlink" width="69px" height="25px" xmlns="http://www.w3.org/2000/svg">
  <defs>
    <mask fill="white" id="clip11">
      <path d="M 0 20  L 0 5  C 0 2.19999999999999  2.19999999999982 0  5 0  L 31 0  L 64 0  C 66.8000000000002 0  69 2.19999999999999  69 5  L 69 20  C 69 22.8  66.8000000000002 25  64 25  L 5 25  C 2.19999999999982 25  0 22.8  0 20  Z " fill-rule="evenodd" />
    </mask>
  </defs>
  <g transform="matrix(1 0 0 1 -2147 -424 )">
    <path d="M 0 20  L 0 5  C 0 2.19999999999999  2.19999999999982 0  5 0  L 31 0  L 64 0  C 66.8000000000002 0  69 2.19999999999999  69 5  L 69 20  C 69 22.8  66.8000000000002 25  64 25  L 5 25  C 2.19999999999982 25  0 22.8  0 20  Z " fill-rule="nonzero" fill="#19be6b" stroke="none" transform="matrix(1 0 0 1 2147 424 )" />
    <path d="M 0 20  L 0 5  C 0 2.19999999999999  2.19999999999982 0  5 0  L 31 0  L 64 0  C 66.8000000000002 0  69 2.19999999999999  69 5  L 69 20  C 69 22.8  66.8000000000002 25  64 25  L 5 25  C 2.19999999999982 25  0 22.8  0 20  Z " stroke-width="2" stroke="#19be6b" fill="none" transform="matrix(1 0 0 1 2147 424 )" mask="url(#clip11)" />
  </g>
</svg>