<?xml version="1.0" encoding="utf-8"?>
<svg version="1.1" xmlns:xlink="http://www.w3.org/1999/xlink" width="69px" height="25px" xmlns="http://www.w3.org/2000/svg">
  <g transform="matrix(1 0 0 1 -2147 -477 )">
    <path d="M 2148 482  A 4 4 0 0 1 2152 478 L 2211 478  A 4 4 0 0 1 2215 482 L 2215 497  A 4 4 0 0 1 2211 501 L 2152 501  A 4 4 0 0 1 2148 497 L 2148 482  Z " fill-rule="nonzero" fill="#e7f4ee" stroke="none" />
    <path d="M 2147.5 482  A 4.5 4.5 0 0 1 2152 477.5 L 2211 477.5  A 4.5 4.5 0 0 1 2215.5 482 L 2215.5 497  A 4.5 4.5 0 0 1 2211 501.5 L 2152 501.5  A 4.5 4.5 0 0 1 2147.5 497 L 2147.5 482  Z " stroke-width="1" stroke="#84dcb0" fill="none" stroke-opacity="0.996078431372549" />
  </g>
</svg>