<?xml version="1.0" encoding="utf-8"?>
<svg version="1.1" xmlns:xlink="http://www.w3.org/1999/xlink" width="45px" height="25px" xmlns="http://www.w3.org/2000/svg">
  <g transform="matrix(1 0 0 1 -2087 -375 )">
    <path d="M 2088 380  A 4 4 0 0 1 2092 376 L 2127 376  A 4 4 0 0 1 2131 380 L 2131 395  A 4 4 0 0 1 2127 399 L 2092 399  A 4 4 0 0 1 2088 395 L 2088 380  Z " fill-rule="nonzero" fill="#fff7eb" stroke="none" fill-opacity="0.996078431372549" />
    <path d="M 2087.5 380  A 4.5 4.5 0 0 1 2092 375.5 L 2127 375.5  A 4.5 4.5 0 0 1 2131.5 380 L 2131.5 395  A 4.5 4.5 0 0 1 2127 399.5 L 2092 399.5  A 4.5 4.5 0 0 1 2087.5 395 L 2087.5 380  Z " stroke-width="1" stroke="#ffb84d" fill="none" stroke-opacity="0.996078431372549" />
  </g>
</svg>