<?xml version="1.0" encoding="utf-8"?>
<svg version="1.1" xmlns:xlink="http://www.w3.org/1999/xlink" width="69px" height="25px" xmlns="http://www.w3.org/2000/svg">
  <g transform="matrix(1 0 0 1 -2147 -477 )">
    <path d="M 2147.5 482  A 4.5 4.5 0 0 1 2152 477.5 L 2211 477.5  A 4.5 4.5 0 0 1 2215.5 482 L 2215.5 497  A 4.5 4.5 0 0 1 2211 501.5 L 2152 501.5  A 4.5 4.5 0 0 1 2147.5 497 L 2147.5 482  Z " fill-rule="nonzero" fill="#5daf34" stroke="none" />
    <path d="M 2147.5 482  A 4.5 4.5 0 0 1 2152 477.5 L 2211 477.5  A 4.5 4.5 0 0 1 2215.5 482 L 2215.5 497  A 4.5 4.5 0 0 1 2211 501.5 L 2152 501.5  A 4.5 4.5 0 0 1 2147.5 497 L 2147.5 482  Z " stroke-width="1" stroke="#5daf34" fill="none" />
  </g>
</svg>