<?xml version="1.0" encoding="utf-8"?>
<svg version="1.1" xmlns:xlink="http://www.w3.org/1999/xlink" width="80px" height="30px" xmlns="http://www.w3.org/2000/svg">
  <g transform="matrix(1 0 0 1 -2760 -315 )">
    <path d="M 2760.5 318  A 2.5 2.5 0 0 1 2763 315.5 L 2837 315.5  A 2.5 2.5 0 0 1 2839.5 318 L 2839.5 342  A 2.5 2.5 0 0 1 2837 344.5 L 2763 344.5  A 2.5 2.5 0 0 1 2760.5 342 L 2760.5 318  Z " fill-rule="nonzero" fill="#f9f9f9" stroke="none" />
    <path d="M 2760.5 318  A 2.5 2.5 0 0 1 2763 315.5 L 2837 315.5  A 2.5 2.5 0 0 1 2839.5 318 L 2839.5 342  A 2.5 2.5 0 0 1 2837 344.5 L 2763 344.5  A 2.5 2.5 0 0 1 2760.5 342 L 2760.5 318  Z " stroke-width="1" stroke="#e4e4e4" fill="none" />
  </g>
</svg>