<?xml version="1.0" encoding="utf-8"?>
<svg version="1.1" xmlns:xlink="http://www.w3.org/1999/xlink" width="62px" height="25px" xmlns="http://www.w3.org/2000/svg">
  <g transform="matrix(1 0 0 1 -2241 -325 )">
    <path d="M 2242 330  A 4 4 0 0 1 2246 326 L 2298 326  A 4 4 0 0 1 2302 330 L 2302 345  A 4 4 0 0 1 2298 349 L 2246 349  A 4 4 0 0 1 2242 345 L 2242 330  Z " fill-rule="nonzero" fill="#fff7eb" stroke="none" fill-opacity="0.996078431372549" />
    <path d="M 2241.5 330  A 4.5 4.5 0 0 1 2246 325.5 L 2298 325.5  A 4.5 4.5 0 0 1 2302.5 330 L 2302.5 345  A 4.5 4.5 0 0 1 2298 349.5 L 2246 349.5  A 4.5 4.5 0 0 1 2241.5 345 L 2241.5 330  Z " stroke-width="1" stroke="#ffb84d" fill="none" stroke-opacity="0.996078431372549" />
  </g>
</svg>