<?xml version="1.0" encoding="utf-8"?>
<svg version="1.1" xmlns:xlink="http://www.w3.org/1999/xlink" width="80px" height="35px" xmlns="http://www.w3.org/2000/svg">
  <g transform="matrix(1 0 0 1 -602 -170 )">
    <path d="M 602.5 175  A 4.5 4.5 0 0 1 607 170.5 L 677 170.5  A 4.5 4.5 0 0 1 681.5 175 L 681.5 200  A 4.5 4.5 0 0 1 677 204.5 L 607 204.5  A 4.5 4.5 0 0 1 602.5 200 L 602.5 175  Z " fill-rule="nonzero" fill="#f0f7ff" stroke="none" />
    <path d="M 602.5 175  A 4.5 4.5 0 0 1 607 170.5 L 677 170.5  A 4.5 4.5 0 0 1 681.5 175 L 681.5 200  A 4.5 4.5 0 0 1 677 204.5 L 607 204.5  A 4.5 4.5 0 0 1 602.5 200 L 602.5 175  Z " stroke-width="1" stroke="#409eff" fill="none" />
  </g>
</svg>