<?xml version="1.0" encoding="utf-8"?>
<svg version="1.1" xmlns:xlink="http://www.w3.org/1999/xlink" width="61px" height="25px" xmlns="http://www.w3.org/2000/svg">
  <defs>
    <mask fill="white" id="clip17">
      <path d="M 0 20  L 0 5  C 0 2.19999999999999  2.39642857142862 0  5.44642857142857 0  L 29.4107142857143 0  L 55.5535714285714 0  C 58.6035714285714 0  61 2.19999999999999  61 5  L 61 20  C 61 22.8  58.6035714285714 25  55.5535714285714 25  L 5.44642857142857 25  C 2.39642857142862 25  0 22.8  0 20  Z " fill-rule="evenodd" />
    </mask>
  </defs>
  <g transform="matrix(1 0 0 1 -1497 -371 )">
    <path d="M 0 20  L 0 5  C 0 2.19999999999999  2.39642857142862 0  5.44642857142857 0  L 29.4107142857143 0  L 55.5535714285714 0  C 58.6035714285714 0  61 2.19999999999999  61 5  L 61 20  C 61 22.8  58.6035714285714 25  55.5535714285714 25  L 5.44642857142857 25  C 2.39642857142862 25  0 22.8  0 20  Z " fill-rule="nonzero" fill="#f56c6c" stroke="none" transform="matrix(1 0 0 1 1497 371 )" />
    <path d="M 0 20  L 0 5  C 0 2.19999999999999  2.39642857142862 0  5.44642857142857 0  L 29.4107142857143 0  L 55.5535714285714 0  C 58.6035714285714 0  61 2.19999999999999  61 5  L 61 20  C 61 22.8  58.6035714285714 25  55.5535714285714 25  L 5.44642857142857 25  C 2.39642857142862 25  0 22.8  0 20  Z " stroke-width="2" stroke="#f56c6c" fill="none" transform="matrix(1 0 0 1 1497 371 )" mask="url(#clip17)" />
  </g>
</svg>